<?xml version="1.0" encoding="UTF-8" standalone="no"?>
<!-- Generator: Adobe Illustrator 18.0.0, SVG Export Plug-In . SVG Version: 6.00 Build 0)  -->

<svg
   version="1.1"
   id="Capa_1"
   x="0px"
   y="0px"
   viewBox="0 0 492.288 492.288"
   style="enable-background:new 0 0 492.288 492.288;"
   xml:space="preserve"
   sodipodi:docname="person.svg"
   inkscape:version="1.1.1 (3bf5ae0d25, 2021-09-20)"
   xmlns:inkscape="http://www.inkscape.org/namespaces/inkscape"
   xmlns:sodipodi="http://sodipodi.sourceforge.net/DTD/sodipodi-0.dtd"
   xmlns="http://www.w3.org/2000/svg"
   xmlns:svg="http://www.w3.org/2000/svg"><defs
   id="defs916" /><sodipodi:namedview
   id="namedview914"
   pagecolor="#505050"
   bordercolor="#eeeeee"
   borderopacity="1"
   inkscape:pageshadow="0"
   inkscape:pageopacity="0"
   inkscape:pagecheckerboard="0"
   showgrid="false"
   inkscape:zoom="1.5905324"
   inkscape:cx="281.98106"
   inkscape:cy="174.46989"
   inkscape:window-width="1920"
   inkscape:window-height="1001"
   inkscape:window-x="-9"
   inkscape:window-y="-9"
   inkscape:window-maximized="1"
   inkscape:current-layer="g881" />
<g
   id="g881">
	<path
   d="m 225.717,105.98 c 9.661,14.115 25.888,23.399 44.246,23.399 18.381,0 34.626,-9.306 44.281,-23.451 33.73756,-37.4676 -9.29171,-86.387211 -40.05514,-89.316678 -31.81128,1.799835 0,0 -31.81128,1.799835 -16.73857,16.471589 0,0 -16.73857,16.471589 -15.9512,32.319617 -18.12964,46.994285 0.078,71.097254 z m 44.246,14.899 c -24.86,0 -45.085,-20.225 -45.085,-45.085 V 63.237 c 11.655,-4.42 26.2656,-6.438153 29.7956,-14.280153 28.53524,8.78789 28.31928,8.964187 60.3734,21.025793 V 75.794 c 0,24.86 -20.224,45.085 -45.084,45.085 z M 241.94479,25.341368 c 1.059,-0.136 3.18422,-1.629716 3.87022,-2.447716 0.377,-0.447 9.97771,-1.145622 28.67771,-0.347622 26.18356,11.928594 33.45796,15.178415 44.61227,39.665542 0.51812,12.932469 1.67526,35.01439 1.77458,13.247999 -2.34821,-4.321016 1.57154,-5.680674 1.50542,-8.649283 -0.112,-2.344 0.55344,-3.614285 -0.7237,-2.764854 C 281.77887,52.196407 279.47108,48.884782 257.55854,39.121195 l -9.91134,4.249862 -3.35832,0.60869 C 238.86313,55.748864 233.582,54.746 217.556,56.317 c -2.336,0.229 -4.044,2.308 -3.814,4.644 0.159,1.628 1.219,2.946 2.636,3.522 v 11.31 c 0,4.362 0.536,8.599 1.525,12.661 -1.525,-23.971 0.84779,-26.996632 24.04179,-63.112632 z"
   id="path871"
   sodipodi:nodetypes="cscccccsscccssccccccccccsccscc" />
	
	<path
   d="M273.758,103.574h-10.02c-2.348,0-4.25,1.903-4.25,4.25c0,2.347,1.902,4.25,4.25,4.25h10.02c2.348,0,4.25-1.903,4.25-4.25   C278.008,105.477,276.106,103.574,273.758,103.574z"
   id="path875" />
	<path
   d="M227.903,130.783c-8.222,0-15.464,3.696-20.789,9.17c-0.029,0.03-0.066,0.049-0.096,0.079   c-20.683,20.854-83.075,83.075-83.075,83.075c-9.313,9.312-9.313,24.463,0,33.775c0.032,0.032,0.067,0.059,0.1,0.09h-6.738   c-7.09,0-12.857,5.768-12.857,12.858v2.636H81.96c-6.443,0-11.685,5.242-11.685,11.685v70.998c0,6.443,5.241,11.685,11.685,11.685   h102.968c6.442,0,11.684-5.242,11.684-11.685v-70.998c0-6.443-5.241-11.685-11.684-11.685H162.44v-2.636   c0-4.831-2.681-9.044-6.63-11.241c0.658-0.531,1.297-1.097,1.908-1.708l41.988-41.989v74.021c0,2.347,1.902,4.25,4.25,4.25h2.523   v168.071c0,17.122,13.931,31.053,31.053,31.053c17.122,0,31.053-13.93,31.053-31.053V349.127h2.807v112.109   c0,17.122,13.931,31.053,31.053,31.053c17.122,0,31.053-13.93,31.053-31.053V293.164h2.523c2.348,0,4.25-1.903,4.25-4.25v-73.659   l40.982,40.777c4.655,4.656,10.771,6.984,16.888,6.984c6.116,0,12.232-2.328,16.888-6.984c9.313-9.312,9.313-24.463,0-33.775   c0,0-60.751-60.219-81.207-81.207c-5.673-5.82-13.002-10.267-21.746-10.267h-23.672c-2.171,0-3.993,1.637-4.226,3.795   c-0.661,6.151-6.894,10.969-14.189,10.969c-7.295,0-13.527-4.818-14.189-10.969c-0.232-2.159-2.055-3.795-4.226-3.795H227.903z    M331.771,158.98v95.993H317.96c-2.348,0-4.25,1.903-4.25,4.25c0,2.347,1.902,4.25,4.25,4.25h13.811v21.191h-36.879l0.001-55.06   l29.158-32.223c1.148-1.269,1.424-3.103,0.698-4.653l-8.967-19.166l7.892-4.625c1.985-1.163,2.685-3.695,1.577-5.712l-13.147-23.94   C322.952,139.301,331.771,148.129,331.771,158.98z M302.784,171.329l4.172-23.762l8.855,16.127L302.784,171.329z M301.1,182.167   l7.317-4.288l7.436,15.894l-20.96,23.163l0,0l5.965-34.636C300.94,182.258,301.021,182.214,301.1,182.167z M276.364,228.226   l-6.375,6.664l-6.375-6.664l3.111-59.004h6.527L276.364,228.226z M275.913,153.341l-1.995,7.381h-7.856l-1.996-7.381   c1.892,0.456,3.875,0.707,5.924,0.707S274.022,153.796,275.913,153.341z M253.807,147.964l4.625,17.109l-3.403,64.54   c-0.061,1.17,0.363,2.314,1.173,3.162l10.716,11.201c0.802,0.838,1.911,1.312,3.071,1.312c1.16,0,2.27-0.474,3.071-1.312   l10.716-11.201c0.81-0.847,1.234-1.991,1.173-3.162l-3.402-64.54l4.624-17.109c2.607-2.381,4.582-5.339,5.654-8.681h7.955   l-13.322,75.889c-0.043,0.243-0.064,0.488-0.064,0.735l-0.001,68.757h-32.616v-68.757c0-0.247-0.021-0.492-0.064-0.735   l-13.323-75.889h7.765C249.225,142.625,251.201,145.583,253.807,147.964z M237.385,171.329l-13.028-7.635l8.856-16.128   L237.385,171.329z M239.068,182.167c0.08,0.047,0.161,0.091,0.243,0.133l5.965,34.637l0,0l-20.961-23.164l7.436-15.894   L239.068,182.167z M228.064,139.283l-13.148,23.942c-1.107,2.017-0.408,4.549,1.577,5.712l7.892,4.625l-8.967,19.166   c-0.725,1.55-0.45,3.384,0.698,4.653l29.159,32.224v55.059h-37.069v-21.191h13.236c2.348,0,4.25-1.903,4.25-4.25   c0-2.347-1.902-4.25-4.25-4.25h-13.236V158.98c0-10.86,8.836-19.696,19.696-19.696H228.064z M129.953,229.117l1.602-1.602   l21.773,21.736l-1.62,1.62c-6,5.998-15.758,5.997-21.756,0C123.956,244.874,123.956,235.115,129.953,229.117z M184.928,358.335   H81.96c-1.756,0-3.185-1.429-3.185-3.185v-7.862h12.667c2.348,0,4.25-1.903,4.25-4.25s-1.902-4.25-4.25-4.25H78.776v-29.865   l43.962,5.477v2.368c0,5.904,4.803,10.707,10.705,10.707c5.903,0,10.706-4.803,10.706-10.707v-2.727l43.963-5.132v35.879h-20.669   c-2.348,0-4.25,1.903-4.25,4.25s1.902,4.25,4.25,4.25h20.669v1.862C188.112,356.906,186.684,358.335,184.928,358.335z    M131.238,316.768v-8.608c0-1.216,0.989-2.205,2.205-2.205c1.217,0,2.206,0.989,2.206,2.205v8.608c0,1.217-0.989,2.207-2.206,2.207   C132.227,318.975,131.238,317.985,131.238,316.768z M188.112,284.152v16.2l-44.305,5.172c-1.18-4.629-5.372-8.068-10.364-8.068   c-5.114,0-9.397,3.608-10.451,8.412l-44.216-5.509v-16.206c0-1.756,1.429-3.185,3.185-3.185h102.968   C186.684,280.967,188.112,282.396,188.112,284.152z M112.947,272.467v-2.636c0-2.403,1.955-4.358,4.357-4.358h32.278   c2.402,0,4.357,1.955,4.357,4.358v2.636H112.947z M159.338,243.241l-21.773-21.736l62.142-62.141v43.509L159.338,243.241z    M324.998,313.14l-14.97-14.97c-1.658-1.659-4.352-1.659-6.01,0c-1.66,1.66-1.66,4.351,0,6.011l20.979,20.979v110.813h-7.218   c-2.348,0-4.25,1.903-4.25,4.25c0,2.347,1.902,4.25,4.25,4.25h7.218v7.186h-30.273c-2.348,0-4.25,1.903-4.25,4.25   c0,2.347,1.902,4.25,4.25,4.25h30.273v1.076c0,12.435-10.117,22.553-22.553,22.553c-12.435,0-22.553-10.117-22.553-22.553V344.877   c0-2.347-1.902-4.25-4.25-4.25h-11.307c-2.348,0-4.25,1.903-4.25,4.25v116.359c0,12.435-10.117,22.553-22.553,22.553   c-12.436,0-22.553-10.117-22.553-22.553v-1.076h30.385c2.348,0,4.25-1.903,4.25-4.25c0-2.347-1.902-4.25-4.25-4.25H214.98V324.916   l20.735-20.735c1.66-1.66,1.66-4.351,0-6.011c-1.658-1.659-4.352-1.659-6.01,0l-14.726,14.726v-19.731h110.018V313.14z    M340.271,159.521l63.864,63.864l-21.733,21.8l-42.131-41.921V159.521z M409.018,250.022c-2.905,2.906-6.769,4.506-10.878,4.506   c-3.554,0-6.921-1.202-9.651-3.41l21.597-21.663c2.226,2.732,3.438,6.117,3.438,9.69   C413.523,243.254,411.923,247.117,409.018,250.022z"
   id="path877" />
	<path
   d="M308.776,417.288c2.348,0,4.25-1.903,4.25-4.25v-71c0-2.347-1.902-4.25-4.25-4.25c-2.348,0-4.25,1.903-4.25,4.25v71   C304.526,415.385,306.428,417.288,308.776,417.288z"
   id="path879" />
<path
   d="m 250.83964,64.280513 h -10.02 c -2.348,0 -4.25,1.903 -4.25,4.25 0,2.347 1.902,4.25 4.25,4.25 h 10.02 c 2.348,0 4.25,-1.903 4.25,-4.25 0,-2.347 -1.902,-4.25 -4.25,-4.25 z"
   id="path875-9" /></g>
<g
   id="g883">
</g>
<g
   id="g885">
</g>
<g
   id="g887">
</g>
<g
   id="g889">
</g>
<g
   id="g891">
</g>
<g
   id="g893">
</g>
<g
   id="g895">
</g>
<g
   id="g897">
</g>
<g
   id="g899">
</g>
<g
   id="g901">
</g>
<g
   id="g903">
</g>
<g
   id="g905">
</g>
<g
   id="g907">
</g>
<g
   id="g909">
</g>
<g
   id="g911">
</g>
</svg>
