<?xml version="1.0" standalone="no"?>
<!DOCTYPE svg PUBLIC "-//W3C//DTD SVG 20010904//EN"
 "http://www.w3.org/TR/2001/REC-SVG-20010904/DTD/svg10.dtd">
<svg version="1.0" xmlns="http://www.w3.org/2000/svg"
 width="512.000000pt" height="512.000000pt" viewBox="0 0 512.000000 512.000000"
 preserveAspectRatio="xMidYMid meet">
<metadata>
Created by potrace 1.16, written by Peter Selinger 2001-2019
</metadata>
<g transform="translate(0.000000,512.000000) scale(0.100000,-0.100000)"
fill="#000000" stroke="none">
<path d="M1081 3659 c-91 -18 -164 -79 -208 -175 l-23 -51 2 -904 3 -904 23
-47 c46 -92 131 -158 229 -177 55 -11 1027 -26 1523 -25 184 1 504 6 710 12
439 12 442 12 532 102 86 86 88 97 88 496 0 379 -10 344 96 343 71 -1 98 10
124 54 18 29 20 51 20 210 0 252 -15 277 -164 277 l-75 0 -3 293 c-3 288 -3
293 -28 340 -29 58 -86 112 -149 141 l-46 21 -1305 1 c-718 1 -1325 -2 -1349
-7z m2694 -104 c36 -22 57 -45 77 -84 l28 -53 0 -283 0 -283 -30 -4 -30 -5 0
257 c0 268 -5 305 -44 349 -47 53 13 51 -1368 51 -1432 0 -1326 5 -1375 -69
l-23 -34 0 -872 0 -872 23 -34 c12 -18 38 -44 56 -56 l34 -23 1279 0 c1057 0
1284 2 1311 14 42 17 83 66 97 114 6 22 10 164 10 345 l0 307 30 0 30 0 0
-316 c0 -199 -4 -331 -11 -359 -7 -26 -28 -63 -50 -89 -72 -81 40 -75 -1417
-77 -1289 -1 -1300 0 -1340 20 -44 22 -89 71 -107 116 -10 23 -14 245 -16 925
-4 994 -9 918 63 987 69 67 -32 63 1414 60 l1311 -2 48 -30z m-37 -93 c13 -7
32 -28 42 -45 19 -30 20 -52 20 -307 l-1 -275 -52 -30 c-120 -69 -169 -224
-108 -342 23 -47 83 -103 129 -122 l33 -14 -3 -333 c-3 -319 -4 -334 -24 -361
-11 -15 -36 -38 -54 -51 l-33 -22 -1281 0 c-1252 0 -1282 1 -1313 20 -18 10
-40 31 -50 47 -17 25 -18 77 -21 863 -2 459 0 854 3 878 8 58 59 110 112 114
21 2 610 1 1308 -2 1023 -4 1274 -8 1293 -18z m376 -698 c10 -25 7 -318 -4
-334 -7 -12 -38 -16 -147 -18 -120 -2 -143 0 -173 16 -123 67 -111 245 21 313
56 28 103 37 205 38 75 1 93 -2 98 -15z"/>
</g>
</svg>